<?xml version="1.0" encoding="utf-8"?>
<!-- Generator: Adobe Illustrator 19.2.0, SVG Export Plug-In . SVG Version: 6.00 Build 0)  -->
<svg version="1.1" id="Layer_1" xmlns="http://www.w3.org/2000/svg" xmlns:xlink="http://www.w3.org/1999/xlink" x="0px" y="0px"
	 viewBox="0 0 600 349" style="enable-background:new 0 0 600 349;" xml:space="preserve">
<style type="text/css">
	.st0{fill:#3C4132;}
	.st1{enable-background:new    ;}
	.st2{fill:#4F5642;}
	.st3{fill:#DB8F18;}
	.st4{fill:#3C4131;}
</style>
<g>
	<g>
		<g>
			<path class="st0" d="M270.9,14.1c5-1,10-1.9,15-2.6c6.4-0.8,12.8-1.4,19.2-1.6c3.6-0.1,7.1-0.1,10.7-0.1l10.5-3.4
				c-0.1,0-0.3,0-0.4,0c-6.7-0.5-13.4-0.6-20.2-0.3c-6.7,0.2-13.5,0.8-20.2,1.7c-6.7,0.9-13.4,2.1-20,3.6c-1.6,0.4-3.2,0.8-4.8,1.2
				L270.9,14.1z"/>
			<path class="st0" d="M413.5,42c-3.9-4.1-8.4-8-13.4-11.5l-2.5,5.2c3.4,2.7,6.6,5.6,9.4,8.6c4.5,4.9,8.1,10.1,10.9,15.7
				c2.8,5.7,4.6,11.6,5.4,17.8c0.8,6.3,0.5,12.9-0.9,19.6c-0.4,1.9-0.9,3.7-1.5,5.6c-0.6,1.9-1.2,3.7-2,5.6
				c-0.6,1.4-1.2,2.8-1.9,4.2l5.3,6.9c0.7-1.2,1.3-2.4,1.9-3.7c1-2,1.8-3.9,2.6-5.9c0.8-2,1.4-3.9,2-5.9c0.6-2,1.1-3.9,1.5-5.9
				c1.4-7.1,1.6-14.1,0.7-20.8c-0.9-6.6-2.9-12.9-6-18.9C422.3,52.6,418.3,47.1,413.5,42z"/>
			<path class="st0" d="M374.8,156.2c-7.3,4.4-15,8.4-23.2,11.8c-10.1,4.2-20.8,7.5-31.8,9.9c-11,2.4-22.3,3.8-33.6,4.3
				c-11.3,0.4-22.5-0.1-33.4-1.7c-4.6-0.7-9.1-1.5-13.4-2.5c-4.3-1-8.5-2.2-12.5-3.5c-4-1.3-7.9-2.8-11.6-4.4
				c-0.6-0.3-1.2-0.6-1.8-0.8l-9.8,3.5c2.1,1.1,4.2,2.1,6.4,3.1c3.9,1.7,8,3.3,12.3,4.7c4.3,1.4,8.7,2.7,13.4,3.8
				c4.6,1.1,9.4,2,14.3,2.7c11.7,1.7,23.7,2.3,35.7,1.9c12.1-0.5,24.2-2,36-4.5c11.8-2.6,23.2-6.1,34-10.6
				c10.4-4.4,20.3-9.6,29.3-15.6L374.8,156.2z"/>
			<path class="st0" d="M166.4,138.7l5.2-7.6c-1.5-3.2-2.7-6.4-3.6-9.6c-1.5-5.5-2.1-11-1.9-16.6c0.2-5.5,1.2-11,3-16.5
				c1.8-5.4,4.3-10.8,7.5-16.1c1.4-2.2,2.9-4.4,4.5-6.6c1.6-2.1,3.3-4.2,5.1-6.3c1.8-2,3.7-4,5.7-6c0.4-0.4,0.8-0.7,1.1-1.1
				l-2.3-4.6c-1.5,1.3-3,2.6-4.4,4c-2.1,2.1-4.2,4.2-6.1,6.3c-1.9,2.2-3.7,4.4-5.4,6.6c-1.7,2.3-3.3,4.6-4.8,6.9
				c-3.5,5.6-6.2,11.2-8.1,17c-2,5.8-3.1,11.7-3.4,17.5c-0.3,5.9,0.3,11.9,1.8,17.7C161.6,128.9,163.7,133.9,166.4,138.7z"/>
		</g>
		<g>
			<g class="st1">
				<polygon class="st2" points="193.9,18.7 327.6,38.6 294.1,49.7 231.1,39.8 241.1,57.9 225.2,81.1 				"/>
				<polygon class="st3" points="397.2,0 363.7,69.4 351.6,94.4 335.5,71.8 358.2,28.4 327.6,38.6 294.2,33.6 				"/>
				<polygon class="st4" points="241.1,57.9 252.7,78.8 220.3,129 256.1,116.5 293.5,123.9 164.4,169.8 				"/>
				<g>
					<polygon class="st2" points="363.7,69.4 426,150.1 256.1,116.5 293.7,103.4 368,117.3 351.6,94.4 					"/>
				</g>
			</g>
		</g>
	</g>
	<g>
		<g>
			<g>
				<path class="st4" d="M598.1,252.3c-1.2,1.2-2.7,1.7-4.3,1.7c-1.7,0-3.2-0.6-4.4-1.8c-1.2-1.2-1.8-2.7-1.8-4.4
					c0-1.8,0.6-3.3,1.9-4.5c1.2-1.1,2.6-1.7,4.3-1.7c1.7,0,3.2,0.6,4.4,1.8c1.2,1.2,1.8,2.7,1.8,4.4
					C599.9,249.6,599.3,251.1,598.1,252.3z M590.1,244.2c-1,1-1.5,2.2-1.5,3.6c0,1.4,0.5,2.7,1.5,3.7c1,1,2.2,1.5,3.6,1.5
					c1.4,0,2.6-0.5,3.6-1.5c1-1,1.5-2.2,1.5-3.6c0-1.4-0.5-2.6-1.5-3.6c-1-1-2.2-1.5-3.6-1.5C592.3,242.7,591.1,243.2,590.1,244.2z
					 M591,251.3v-6.9c0.4,0,1.1,0,1.9,0c0.8,0,1.3,0,1.4,0c0.5,0,1,0.2,1.4,0.4c0.6,0.3,0.9,0.9,0.9,1.6c0,0.6-0.2,1-0.5,1.3
					c-0.3,0.3-0.7,0.4-1.2,0.5c0.4,0.1,0.8,0.2,1,0.4c0.4,0.3,0.6,0.8,0.6,1.5v0.6c0,0.1,0,0.1,0,0.2c0,0.1,0,0.1,0,0.2l0.1,0.2
					h-1.7c-0.1-0.2-0.1-0.5-0.1-0.9c0-0.4-0.1-0.7-0.1-0.8c-0.1-0.2-0.3-0.4-0.5-0.5c-0.1-0.1-0.3-0.1-0.6-0.1l-0.4,0h-0.4v2.4H591z
					 M594.3,245.8c-0.2-0.1-0.6-0.1-1-0.1h-0.4v2h0.7c0.4,0,0.7-0.1,1-0.3c0.2-0.2,0.4-0.4,0.4-0.8
					C594.8,246.2,594.7,245.9,594.3,245.8z"/>
			</g>
			<g>
				<path class="st4" d="M97.8,345.2c0.4,0.8-0.1,1.8-1.2,1.8H69.3c-1.2,0-2.3-0.7-2.9-1.8l-2.1-8.5H34.5l-2.1,8.5
					c-0.6,1.1-1.7,1.8-2.9,1.8H2.2c-1.1,0-1.7-1-1.2-1.8l31.1-91.3c0.4-0.8,1.9-1.8,3.3-1.8h28c1.4,0,2.9,1,3.3,1.8L97.8,345.2z
					 M49.4,285L42,311.1h14.8L49.4,285z"/>
				<path class="st4" d="M206.9,252.1c1.2,0,2.1,1,1.9,1.9l-5.7,20.9c-0.1,1.1-1.2,1.9-2.2,1.9h-16.8V345c0,1-0.8,1.9-1.9,1.9h-24.3
					c-1.1,0-2.1-1-2.1-1.9v-68.2H133c-1,0-1.9-0.8-1.9-1.9v-20.8c0-1.1,1-2.1,1.9-2.1H206.9z"/>
				<path class="st4" d="M315.2,322.2c1,0,1.8,0.8,1.8,1.9l-5.6,20.9c-0.1,1-1.1,1.9-2.2,1.9h-46c-1.1,0-2.1-1-2.1-1.9v-90.8
					c0-1.1,1-2.1,2.1-2.1h24.3c1.1,0,2.1,1,2.1,2.1v68H315.2z"/>
				<path class="st4" d="M529.8,318.1c0.4-1.4,1.4-1.8,2.5-1.1c6.3,3.6,13.9,6.2,19.1,6.6c4.4,0,7.3-2.1,7.3-5.2
					c0-8.1-38.6-7.7-38.6-37.7c0-18.4,13.9-30.6,34.8-30.6c9.8,0,22.1,4,30.8,9.9c1.1,0.7,1.5,1.8,1.1,2.5l-8.7,19.4
					c-0.4,1.4-1.4,1.8-2.5,1.1c-6.7-3.8-14.6-6.7-19.4-7.1c-4.3,0-7,1.9-7,4.9c0,8.1,38.9,7.6,38.9,37.8c0,18.3-14.2,30.5-35.3,30.5
					c-11.5,0-23.6-3.6-30.5-9.1c-1.1-0.8-1.5-1.8-1.1-2.5L529.8,318.1z"/>
				<path class="st4" d="M467.3,345.2c0.4,0.8-0.1,1.8-1.2,1.8h-27.2c-1.2,0-2.3-0.7-2.9-1.8l-2.1-8.5H404l-2.1,8.5
					c-0.6,1.1-1.7,1.8-2.9,1.8h-27.2c-1.1,0-1.7-1-1.2-1.8l31.1-91.3c0.4-0.8,1.9-1.8,3.3-1.8h28c1.4,0,2.9,1,3.3,1.8L467.3,345.2z
					 M418.9,285l-7.4,26.1h14.8L418.9,285z"/>
			</g>
		</g>
	</g>
</g>
</svg>
