<?xml version="1.0" encoding="utf-8"?>
<!-- Generator: Adobe Illustrator 19.2.0, SVG Export Plug-In . SVG Version: 6.00 Build 0)  -->
<svg version="1.2" baseProfile="tiny" id="Layer_1" xmlns="http://www.w3.org/2000/svg" xmlns:xlink="http://www.w3.org/1999/xlink"
	 x="0px" y="0px" viewBox="0 0 600 349" xml:space="preserve">
<g>
	<g>
		<path fill="#E7E2D8" d="M271.04,14.05c4.95-1.05,9.95-1.92,14.97-2.58c6.38-0.85,12.8-1.38,19.2-1.6
			c3.57-0.12,7.13-0.13,10.68-0.05l10.51-3.43c-0.14-0.01-0.27-0.02-0.4-0.03c-6.67-0.45-13.42-0.55-20.17-0.32
			c-6.73,0.23-13.48,0.8-20.19,1.69c-6.7,0.89-13.38,2.11-19.95,3.64c-1.59,0.37-3.18,0.76-4.77,1.17L271.04,14.05z"/>
		<path fill="#E7E2D8" d="M413.62,41.95c-3.87-4.12-8.36-7.97-13.35-11.54l-2.5,5.18c3.44,2.72,6.6,5.59,9.39,8.61
			c4.49,4.87,8.13,10.11,10.86,15.66c2.78,5.66,4.61,11.63,5.4,17.82c0.81,6.33,0.55,12.88-0.88,19.57
			c-0.4,1.86-0.88,3.71-1.45,5.57c-0.57,1.86-1.23,3.72-1.98,5.57c-0.57,1.41-1.21,2.82-1.89,4.22l5.32,6.9
			c0.68-1.22,1.34-2.44,1.94-3.67c0.96-1.96,1.84-3.93,2.61-5.91c0.77-1.97,1.45-3.95,2.04-5.93c0.58-1.97,1.07-3.95,1.47-5.92
			c1.43-7.11,1.62-14.07,0.68-20.78c-0.93-6.56-2.94-12.87-5.97-18.85C422.35,52.6,418.43,47.07,413.62,41.95z"/>
		<path fill="#E7E2D8" d="M374.91,156.21c-7.27,4.45-15.02,8.41-23.19,11.79c-10.14,4.19-20.82,7.51-31.83,9.9
			c-11.03,2.39-22.32,3.83-33.63,4.27c-11.27,0.44-22.5-0.12-33.45-1.7c-4.61-0.67-9.09-1.5-13.44-2.5c-4.32-1-8.5-2.16-12.54-3.47
			c-4.01-1.31-7.87-2.78-11.57-4.4c-0.62-0.27-1.2-0.57-1.81-0.85l-9.83,3.49c2.09,1.08,4.23,2.12,6.43,3.1
			c3.93,1.75,8.04,3.33,12.3,4.75c4.29,1.42,8.75,2.68,13.35,3.76c4.63,1.08,9.41,1.99,14.33,2.72c11.69,1.72,23.69,2.34,35.73,1.89
			c12.09-0.45,24.17-1.99,35.96-4.55c11.77-2.56,23.18-6.12,34-10.63c10.45-4.35,20.26-9.57,29.26-15.56L374.91,156.21z"/>
		<path fill="#E7E2D8" d="M166.47,138.73l5.19-7.57c-1.49-3.16-2.71-6.36-3.59-9.61c-1.48-5.46-2.09-11.02-1.88-16.61
			c0.21-5.49,1.22-11.02,3.01-16.51c1.76-5.4,4.27-10.77,7.52-16.05c1.37-2.23,2.86-4.43,4.46-6.58c1.59-2.14,3.29-4.24,5.1-6.29
			c1.8-2.04,3.7-4.04,5.71-5.99c0.37-0.36,0.76-0.71,1.14-1.07l-2.28-4.55c-1.49,1.3-2.95,2.62-4.35,3.96
			c-2.14,2.05-4.16,4.15-6.08,6.3c-1.93,2.16-3.74,4.37-5.44,6.62c-1.71,2.27-3.31,4.58-4.78,6.94c-3.49,5.58-6.2,11.25-8.13,16.95
			c-1.96,5.81-3.11,11.67-3.4,17.49c-0.3,5.94,0.28,11.85,1.77,17.66C161.73,128.9,163.77,133.88,166.47,138.73z"/>
	</g>
	<g>
		<g>
			<polygon fill="#D2C9B4" points="194.04,18.7 327.68,38.56 294.18,49.67 231.21,39.75 241.22,57.87 225.27,81.13 			"/>
			<polygon fill="#DC9018" points="397.27,0 363.78,69.41 351.72,94.4 335.55,71.8 358.32,28.4 327.68,38.56 294.31,33.6 			"/>
			<polygon fill="#E7E2D8" points="241.22,57.88 252.81,78.8 220.37,128.99 256.24,116.5 293.61,123.9 164.49,169.76 			"/>
			<g>
				<polygon fill="#D2C9B4" points="363.78,69.41 426.05,150.11 256.24,116.5 293.77,103.41 368.08,117.29 351.72,94.4 				"/>
			</g>
		</g>
	</g>
</g>
<g>
	<g>
		<g>
			<path fill="#E7E2D8" d="M598.14,252.27c-1.2,1.17-2.65,1.75-4.34,1.75c-1.74,0-3.21-0.6-4.4-1.79c-1.19-1.19-1.79-2.66-1.79-4.4
				c0-1.81,0.64-3.31,1.93-4.51c1.21-1.12,2.63-1.68,4.26-1.68c1.71,0,3.17,0.61,4.38,1.82c1.21,1.21,1.82,2.67,1.82,4.38
				C600,249.58,599.38,251.06,598.14,252.27z M590.17,244.23c-0.99,1.01-1.48,2.21-1.48,3.59c0,1.43,0.5,2.65,1.5,3.66
				c1,1,2.2,1.5,3.61,1.5c1.41,0,2.61-0.5,3.6-1.51c1-1.01,1.5-2.23,1.5-3.65c0-1.38-0.5-2.58-1.49-3.59
				c-1-1.03-2.21-1.55-3.61-1.55C592.38,242.68,591.17,243.2,590.17,244.23z M591.09,251.27v-6.87c0.43,0,1.06,0,1.91,0
				c0.85,0,1.32,0.01,1.42,0.01c0.54,0.04,0.99,0.16,1.35,0.35c0.61,0.34,0.92,0.88,0.92,1.64c0,0.58-0.16,0.99-0.48,1.25
				c-0.32,0.26-0.72,0.41-1.19,0.46c0.43,0.09,0.76,0.22,0.97,0.4c0.4,0.33,0.61,0.84,0.61,1.54v0.61c0,0.07,0,0.14,0.01,0.2
				c0.01,0.07,0.03,0.13,0.05,0.2l0.06,0.19h-1.71c-0.06-0.22-0.09-0.54-0.11-0.95c-0.02-0.42-0.06-0.7-0.11-0.84
				c-0.09-0.24-0.26-0.41-0.5-0.5c-0.14-0.06-0.34-0.09-0.61-0.11l-0.4-0.03h-0.38v2.43H591.09z M594.37,245.75
				c-0.25-0.09-0.59-0.14-1.04-0.14h-0.44v1.99h0.7c0.42,0,0.75-0.08,0.98-0.25c0.23-0.17,0.35-0.44,0.35-0.81
				C594.92,246.16,594.74,245.9,594.37,245.75z"/>
		</g>
		<g>
			<path fill="#E7E2D8" d="M97.84,345.15c0.41,0.83-0.14,1.79-1.24,1.79H69.4c-1.24,0-2.34-0.69-2.89-1.79l-2.14-8.49h-29.8
				l-2.14,8.49c-0.55,1.1-1.65,1.79-2.89,1.79H2.33c-1.1,0-1.65-0.96-1.24-1.79l31.06-91.25c0.41-0.82,1.92-1.79,3.3-1.79h28.03
				c1.37,0,2.89,0.96,3.3,1.79L97.84,345.15z M49.47,284.96l-7.42,26.11h14.84L49.47,284.96z"/>
			<path fill="#E7E2D8" d="M207.04,252.12c1.24,0,2.06,0.96,1.92,1.92l-5.69,20.89c-0.13,1.1-1.24,1.92-2.2,1.92h-16.85v68.16
				c0,0.96-0.83,1.92-1.92,1.92h-24.33c-1.1,0-2.06-0.96-2.06-1.92v-68.16h-22.81c-0.96,0-1.92-0.83-1.92-1.92v-20.75
				c0-1.1,0.96-2.06,1.92-2.06H207.04z"/>
			<path fill="#E7E2D8" d="M315.24,322.21c0.96,0,1.79,0.82,1.79,1.92l-5.55,20.89c-0.13,0.96-1.1,1.92-2.2,1.92H263.3
				c-1.1,0-2.06-0.96-2.06-1.92v-90.84c0-1.1,0.96-2.06,2.06-2.06h24.32c1.1,0,2.06,0.96,2.06,2.06v68.03H315.24z"/>
			<path fill="#E7E2D8" d="M529.85,318.08c0.41-1.37,1.37-1.79,2.47-1.1c6.32,3.57,13.88,6.18,19.1,6.59c4.4,0,7.28-2.06,7.28-5.22
				c0-8.11-38.61-7.7-38.61-37.65c0-18.42,13.88-30.65,34.77-30.65c9.76,0,22.13,3.99,30.78,9.9c1.1,0.69,1.51,1.79,1.1,2.47
				l-8.66,19.38c-0.41,1.37-1.37,1.79-2.47,1.1c-6.73-3.85-14.57-6.73-19.38-7.14c-4.26,0-7.01,1.92-7.01,4.95
				c0,8.11,38.89,7.56,38.89,37.79c0,18.27-14.15,30.51-35.32,30.51c-11.55,0-23.64-3.57-30.51-9.07c-1.1-0.82-1.51-1.79-1.1-2.47
				L529.85,318.08z"/>
			<path fill="#E7E2D8" d="M467.35,345.15c0.41,0.83-0.14,1.79-1.24,1.79h-27.21c-1.24,0-2.34-0.69-2.89-1.79l-2.14-8.49h-29.8
				l-2.14,8.49c-0.55,1.1-1.65,1.79-2.89,1.79h-27.21c-1.1,0-1.65-0.96-1.24-1.79l31.06-91.25c0.41-0.82,1.92-1.79,3.3-1.79h28.03
				c1.37,0,2.89,0.96,3.3,1.79L467.35,345.15z M418.98,284.96l-7.42,26.11h14.84L418.98,284.96z"/>
		</g>
	</g>
</g>
</svg>
